<mxfile host="app.diagrams.net" agent="Mozilla/5.0 (X11; Linux x86_64) AppleWebKit/537.36 (KHTML, like Gecko) Chrome/132.0.0.0 YaBrowser/25.2.0.0 Safari/537.36" version="27.1.4">
  <diagram id="C5RBs43oDa-KdzZeNtuy" name="Page-1">
    <mxGraphModel dx="3388" dy="988" grid="1" gridSize="10" guides="1" tooltips="1" connect="1" arrows="1" fold="1" page="1" pageScale="1" pageWidth="827" pageHeight="1169" math="0" shadow="0">
      <root>
        <mxCell id="WIyWlLk6GJQsqaUBKTNV-0" />
        <mxCell id="WIyWlLk6GJQsqaUBKTNV-1" parent="WIyWlLk6GJQsqaUBKTNV-0" />
        <mxCell id="chWIMvwA3XF9eIFrWoAB-0" value="" style="endArrow=open;html=1;rounded=0;dashed=1;endFill=0;endSize=9;" edge="1" parent="WIyWlLk6GJQsqaUBKTNV-1">
          <mxGeometry width="50" height="50" relative="1" as="geometry">
            <mxPoint x="110" y="954.5" as="sourcePoint" />
            <mxPoint x="200" y="954.5" as="targetPoint" />
          </mxGeometry>
        </mxCell>
        <mxCell id="chWIMvwA3XF9eIFrWoAB-1" value="&lt;font style=&quot;font-size: 16px;&quot;&gt;Зависимость&lt;/font&gt;" style="text;html=1;align=center;verticalAlign=middle;whiteSpace=wrap;rounded=0;" vertex="1" parent="WIyWlLk6GJQsqaUBKTNV-1">
          <mxGeometry x="210" y="940" width="120" height="30" as="geometry" />
        </mxCell>
        <mxCell id="chWIMvwA3XF9eIFrWoAB-4" style="edgeStyle=orthogonalEdgeStyle;rounded=0;orthogonalLoop=1;jettySize=auto;html=1;dashed=1;endArrow=open;endFill=0;exitX=1;exitY=0.5;exitDx=0;exitDy=0;" edge="1" parent="WIyWlLk6GJQsqaUBKTNV-1" source="chWIMvwA3XF9eIFrWoAB-12" target="chWIMvwA3XF9eIFrWoAB-3">
          <mxGeometry relative="1" as="geometry">
            <mxPoint x="790" y="480" as="sourcePoint" />
          </mxGeometry>
        </mxCell>
        <mxCell id="chWIMvwA3XF9eIFrWoAB-2" value="" style="rounded=1;whiteSpace=wrap;html=1;" vertex="1" parent="WIyWlLk6GJQsqaUBKTNV-1">
          <mxGeometry x="-450" y="130" width="1239" height="420" as="geometry" />
        </mxCell>
        <mxCell id="chWIMvwA3XF9eIFrWoAB-3" value="JSON" style="rounded=1;whiteSpace=wrap;html=1;" vertex="1" parent="WIyWlLk6GJQsqaUBKTNV-1">
          <mxGeometry x="850" y="480" width="120" height="60" as="geometry" />
        </mxCell>
        <mxCell id="chWIMvwA3XF9eIFrWoAB-5" value="Внешние библиотеки" style="text;html=1;align=center;verticalAlign=middle;whiteSpace=wrap;rounded=0;" vertex="1" parent="WIyWlLk6GJQsqaUBKTNV-1">
          <mxGeometry x="930" y="430" width="60" height="30" as="geometry" />
        </mxCell>
        <mxCell id="chWIMvwA3XF9eIFrWoAB-6" value="" style="endArrow=none;html=1;rounded=0;exitX=0;exitY=0.75;exitDx=0;exitDy=0;entryX=1;entryY=0.75;entryDx=0;entryDy=0;" edge="1" parent="WIyWlLk6GJQsqaUBKTNV-1" source="chWIMvwA3XF9eIFrWoAB-2" target="chWIMvwA3XF9eIFrWoAB-2">
          <mxGeometry width="50" height="50" relative="1" as="geometry">
            <mxPoint x="390" y="410" as="sourcePoint" />
            <mxPoint x="440" y="360" as="targetPoint" />
          </mxGeometry>
        </mxCell>
        <mxCell id="chWIMvwA3XF9eIFrWoAB-13" style="edgeStyle=orthogonalEdgeStyle;rounded=0;orthogonalLoop=1;jettySize=auto;html=1;dashed=1;endArrow=open;endFill=0;entryX=0.5;entryY=1;entryDx=0;entryDy=0;" edge="1" parent="WIyWlLk6GJQsqaUBKTNV-1" source="chWIMvwA3XF9eIFrWoAB-7" target="chWIMvwA3XF9eIFrWoAB-12">
          <mxGeometry relative="1" as="geometry">
            <Array as="points" />
          </mxGeometry>
        </mxCell>
        <mxCell id="chWIMvwA3XF9eIFrWoAB-14" value="" style="edgeStyle=orthogonalEdgeStyle;rounded=0;orthogonalLoop=1;jettySize=auto;html=1;endArrow=open;endFill=0;dashed=1;" edge="1" parent="WIyWlLk6GJQsqaUBKTNV-1" source="chWIMvwA3XF9eIFrWoAB-7" target="chWIMvwA3XF9eIFrWoAB-10">
          <mxGeometry relative="1" as="geometry" />
        </mxCell>
        <mxCell id="chWIMvwA3XF9eIFrWoAB-17" style="edgeStyle=orthogonalEdgeStyle;rounded=0;orthogonalLoop=1;jettySize=auto;html=1;exitX=0;exitY=0.5;exitDx=0;exitDy=0;entryX=0.5;entryY=1;entryDx=0;entryDy=0;endArrow=open;endFill=0;dashed=1;" edge="1" parent="WIyWlLk6GJQsqaUBKTNV-1" source="chWIMvwA3XF9eIFrWoAB-7" target="chWIMvwA3XF9eIFrWoAB-11">
          <mxGeometry relative="1" as="geometry" />
        </mxCell>
        <mxCell id="chWIMvwA3XF9eIFrWoAB-7" value="main" style="rounded=1;whiteSpace=wrap;html=1;" vertex="1" parent="WIyWlLk6GJQsqaUBKTNV-1">
          <mxGeometry x="480" y="470" width="120" height="60" as="geometry" />
        </mxCell>
        <mxCell id="chWIMvwA3XF9eIFrWoAB-8" value="Точка входа в приложение" style="text;html=1;align=center;verticalAlign=middle;whiteSpace=wrap;rounded=0;" vertex="1" parent="WIyWlLk6GJQsqaUBKTNV-1">
          <mxGeometry x="620" y="495" width="120" height="30" as="geometry" />
        </mxCell>
        <mxCell id="chWIMvwA3XF9eIFrWoAB-9" value="" style="endArrow=none;html=1;rounded=0;exitX=0.001;exitY=0.43;exitDx=0;exitDy=0;entryX=1;entryY=0.75;entryDx=0;entryDy=0;exitPerimeter=0;" edge="1" parent="WIyWlLk6GJQsqaUBKTNV-1" source="chWIMvwA3XF9eIFrWoAB-2">
          <mxGeometry width="50" height="50" relative="1" as="geometry">
            <mxPoint x="39" y="310" as="sourcePoint" />
            <mxPoint x="789" y="310" as="targetPoint" />
          </mxGeometry>
        </mxCell>
        <mxCell id="chWIMvwA3XF9eIFrWoAB-22" value="" style="edgeStyle=orthogonalEdgeStyle;rounded=0;orthogonalLoop=1;jettySize=auto;html=1;endArrow=open;endFill=0;dashed=1;" edge="1" parent="WIyWlLk6GJQsqaUBKTNV-1" source="chWIMvwA3XF9eIFrWoAB-10" target="chWIMvwA3XF9eIFrWoAB-21">
          <mxGeometry relative="1" as="geometry" />
        </mxCell>
        <mxCell id="chWIMvwA3XF9eIFrWoAB-10" value="InputReader" style="rounded=1;whiteSpace=wrap;html=1;" vertex="1" parent="WIyWlLk6GJQsqaUBKTNV-1">
          <mxGeometry x="220" y="350" width="120" height="60" as="geometry" />
        </mxCell>
        <mxCell id="chWIMvwA3XF9eIFrWoAB-11" value="ElevatorControl" style="rounded=1;whiteSpace=wrap;html=1;" vertex="1" parent="WIyWlLk6GJQsqaUBKTNV-1">
          <mxGeometry x="-100" y="350" width="120" height="60" as="geometry" />
        </mxCell>
        <mxCell id="chWIMvwA3XF9eIFrWoAB-12" value="JsonReader" style="rounded=1;whiteSpace=wrap;html=1;" vertex="1" parent="WIyWlLk6GJQsqaUBKTNV-1">
          <mxGeometry x="520" y="350" width="120" height="60" as="geometry" />
        </mxCell>
        <mxCell id="chWIMvwA3XF9eIFrWoAB-18" value="Получение данных из сканера штрихкодов или из консоли" style="text;html=1;align=center;verticalAlign=middle;whiteSpace=wrap;rounded=0;" vertex="1" parent="WIyWlLk6GJQsqaUBKTNV-1">
          <mxGeometry x="360" y="340" width="130" height="90" as="geometry" />
        </mxCell>
        <mxCell id="chWIMvwA3XF9eIFrWoAB-19" value="Подготовка транспортных пактов для отправки, хранение отсканированных штрихкодов" style="text;html=1;align=center;verticalAlign=middle;whiteSpace=wrap;rounded=0;" vertex="1" parent="WIyWlLk6GJQsqaUBKTNV-1">
          <mxGeometry x="40" y="335" width="130" height="90" as="geometry" />
        </mxCell>
        <mxCell id="chWIMvwA3XF9eIFrWoAB-20" value="Загрузка настроек из файла JSON, формирование JSON файлов из транспортных пакетов, запись пакетов на диск" style="text;html=1;align=center;verticalAlign=middle;whiteSpace=wrap;rounded=0;" vertex="1" parent="WIyWlLk6GJQsqaUBKTNV-1">
          <mxGeometry x="650" y="320" width="130" height="110" as="geometry" />
        </mxCell>
        <mxCell id="chWIMvwA3XF9eIFrWoAB-21" value="xserial" style="rounded=1;whiteSpace=wrap;html=1;" vertex="1" parent="WIyWlLk6GJQsqaUBKTNV-1">
          <mxGeometry x="220" y="190" width="120" height="60" as="geometry" />
        </mxCell>
        <mxCell id="chWIMvwA3XF9eIFrWoAB-24" value="Библиотека для взаимодействия с сканером штрихкодов через COM порт" style="text;html=1;align=center;verticalAlign=middle;whiteSpace=wrap;rounded=0;" vertex="1" parent="WIyWlLk6GJQsqaUBKTNV-1">
          <mxGeometry x="360" y="180" width="130" height="90" as="geometry" />
        </mxCell>
        <mxCell id="chWIMvwA3XF9eIFrWoAB-25" value="&lt;h1 style=&quot;box-sizing: border-box; margin-right: 0px; margin-bottom: var(--base-size-16); margin-left: 0px; font-weight: var(--base-text-weight-semibold, 600); line-height: 1.25; padding-bottom: 0.3em; border-bottom: 1px solid var(--borderColor-muted, var(--color-border-muted)); color: rgb(240, 246, 252); font-family: -apple-system, BlinkMacSystemFont, &amp;quot;Segoe UI&amp;quot;, &amp;quot;Noto Sans&amp;quot;, Helvetica, Arial, sans-serif, &amp;quot;Apple Color Emoji&amp;quot;, &amp;quot;Segoe UI Emoji&amp;quot;; text-align: start; background-color: rgb(13, 17, 23); margin-top: 0px !important;&quot; dir=&quot;auto&quot; class=&quot;heading-element&quot; tabindex=&quot;-1&quot;&gt;&lt;font style=&quot;font-size: 12px;&quot;&gt;LCD_1602_RUS_ALL&lt;/font&gt;&lt;/h1&gt;" style="rounded=1;whiteSpace=wrap;html=1;" vertex="1" parent="WIyWlLk6GJQsqaUBKTNV-1">
          <mxGeometry x="-400" y="190" width="120" height="60" as="geometry" />
        </mxCell>
        <mxCell id="chWIMvwA3XF9eIFrWoAB-29" value="" style="edgeStyle=orthogonalEdgeStyle;rounded=0;orthogonalLoop=1;jettySize=auto;html=1;dashed=1;endArrow=open;endFill=0;" edge="1" parent="WIyWlLk6GJQsqaUBKTNV-1" source="chWIMvwA3XF9eIFrWoAB-26" target="chWIMvwA3XF9eIFrWoAB-25">
          <mxGeometry relative="1" as="geometry" />
        </mxCell>
        <mxCell id="chWIMvwA3XF9eIFrWoAB-26" value="Viewer" style="rounded=1;whiteSpace=wrap;html=1;" vertex="1" parent="WIyWlLk6GJQsqaUBKTNV-1">
          <mxGeometry x="-400" y="350" width="120" height="60" as="geometry" />
        </mxCell>
        <mxCell id="chWIMvwA3XF9eIFrWoAB-27" style="edgeStyle=orthogonalEdgeStyle;rounded=0;orthogonalLoop=1;jettySize=auto;html=1;entryX=0.445;entryY=1;entryDx=0;entryDy=0;entryPerimeter=0;dashed=1;endArrow=open;endFill=0;" edge="1" parent="WIyWlLk6GJQsqaUBKTNV-1" source="chWIMvwA3XF9eIFrWoAB-7" target="chWIMvwA3XF9eIFrWoAB-26">
          <mxGeometry relative="1" as="geometry" />
        </mxCell>
        <mxCell id="chWIMvwA3XF9eIFrWoAB-28" value="Вывод сообщений на экран пользователя или на внешний дисплей" style="text;html=1;align=center;verticalAlign=middle;whiteSpace=wrap;rounded=0;" vertex="1" parent="WIyWlLk6GJQsqaUBKTNV-1">
          <mxGeometry x="-260" y="335" width="130" height="90" as="geometry" />
        </mxCell>
        <mxCell id="chWIMvwA3XF9eIFrWoAB-31" value="Драйвер для вывода информации на внешний дисплей" style="text;html=1;align=center;verticalAlign=middle;whiteSpace=wrap;rounded=0;" vertex="1" parent="WIyWlLk6GJQsqaUBKTNV-1">
          <mxGeometry x="-250" y="175" width="130" height="90" as="geometry" />
        </mxCell>
        <mxCell id="chWIMvwA3XF9eIFrWoAB-32" value="" style="rounded=1;whiteSpace=wrap;html=1;" vertex="1" parent="WIyWlLk6GJQsqaUBKTNV-1">
          <mxGeometry x="-1080" y="130" width="559" height="420" as="geometry" />
        </mxCell>
        <mxCell id="chWIMvwA3XF9eIFrWoAB-33" value="main" style="rounded=1;whiteSpace=wrap;html=1;" vertex="1" parent="WIyWlLk6GJQsqaUBKTNV-1">
          <mxGeometry x="-790" y="450" width="120" height="60" as="geometry" />
        </mxCell>
        <mxCell id="chWIMvwA3XF9eIFrWoAB-34" value="Точка входа в приложение" style="text;html=1;align=center;verticalAlign=middle;whiteSpace=wrap;rounded=0;" vertex="1" parent="WIyWlLk6GJQsqaUBKTNV-1">
          <mxGeometry x="-660" y="470" width="120" height="30" as="geometry" />
        </mxCell>
        <mxCell id="chWIMvwA3XF9eIFrWoAB-35" value="" style="endArrow=none;html=1;rounded=0;entryX=1;entryY=0.75;entryDx=0;entryDy=0;" edge="1" parent="WIyWlLk6GJQsqaUBKTNV-1">
          <mxGeometry width="50" height="50" relative="1" as="geometry">
            <mxPoint x="-1081" y="430" as="sourcePoint" />
            <mxPoint x="-521" y="430" as="targetPoint" />
          </mxGeometry>
        </mxCell>
      </root>
    </mxGraphModel>
  </diagram>
</mxfile>
